<svg id="Ebene_1" data-name="Ebene 1" xmlns="http://www.w3.org/2000/svg" viewBox="0 0 136.76 63.55"><defs><style>.cls-1{fill:#e40026;}.cls-2{fill:#575656;}</style></defs><title>logo</title><path class="cls-1" d="M74.27,34.78H90c2.2,0,6.06-.32,8.45-2.31a9,9,0,0,0,3.63-7.11,10.63,10.63,0,0,0-4.15-8.51,8.94,8.94,0,0,0,3.29-6.93c0-1.38-.67-8.82-12.55-8.82H74.27ZM81.43,6.87h8.49c2.49,0,4.44.93,4.44,3.84,0,2.68-1.76,3.84-4.82,3.84H81.43Zm0,13.45h9.74c1.33,0,4,.19,4,4C95.22,28.91,92,29,89.83,29h-8.4Z"/><path class="cls-1" d="M41.2,34.78H56.9c2.2,0,6.06-.32,8.45-2.31A9,9,0,0,0,69,25.36a10.64,10.64,0,0,0-4.16-8.51,8.92,8.92,0,0,0,3.3-6.93c0-1.38-.67-8.82-12.56-8.82H41.2ZM48.36,6.87h8.49c2.48,0,4.44.93,4.44,3.84,0,2.68-1.77,3.84-4.82,3.84H48.36Zm0,13.45h9.73c1.34,0,4.06.19,4.06,4,0,4.62-3.25,4.72-5.39,4.72h-8.4Z"/><polygon class="cls-1" points="25.44 1.12 25.44 1.1 13.08 14.56 21.36 14.56 33.69 1.12 25.44 1.12"/><path class="cls-1" d="M31.36,6.32l-4.78,5.21A10.8,10.8,0,0,1,10.14,25.42,10.81,10.81,0,0,1,17.59,7L23.21.86A17.75,17.75,0,0,0,0,17.78a17.78,17.78,0,1,0,35.56,0,17.67,17.67,0,0,0-4.2-11.46"/><path class="cls-2" d="M43.61,63.33,39.82,49.61H42l3,11.58L48.2,49.61h2.41l3.15,11.58,3-11.58h2L55,63.33H52.52l-3.18-11.6-3.19,11.6Z"/><path class="cls-2" d="M61.44,63.33V49.61h7.79v1.66H63.62v4.22H69v1.65H63.62v4.52h5.82v1.67Z"/><path class="cls-2" d="M72.78,63.33V49.61h4c2.38,0,4.88.64,4.88,3.54a3.42,3.42,0,0,1-3.11,3.31,2.63,2.63,0,0,1,2,1.87l2,5H80.17L78.5,59.07c-.55-1.4-1-1.79-2.45-1.79H75v6ZM75,55.64h1.38c1.49,0,3.09-.58,3.09-2.33s-1.38-2.08-3-2.08H75Z"/><path class="cls-2" d="M85.46,63.33V49.61h4.42c2.22,0,4.41.78,4.41,3.39a3.07,3.07,0,0,1-2.62,3.17,3.29,3.29,0,0,1,3,3.27c0,3.21-2.67,3.89-5.31,3.89Zm2.16-7.82h1.46c1.53,0,3-.51,3-2.3,0-1.57-1.35-2.06-2.69-2.06H87.62Zm0,6.27H89c1.57,0,3.36-.43,3.36-2.36S90.55,57,88.86,57H87.62Z"/><path class="cls-2" d="M99.57,58.35c0,2,1,3.46,3.13,3.46s3.16-1.44,3.16-3.46V49.61h2.22v8.72c0,3.31-2.22,5.22-5.4,5.22s-5.33-1.83-5.33-5.16V49.61h2.22Z"/><path class="cls-2" d="M111.35,63.33V49.61h3.18l5.88,11.68V49.61h2V63.33h-3.2l-5.88-11.69V63.33Z"/><path class="cls-2" d="M136.76,62.71a11,11,0,0,1-4.3.84c-4.31,0-7.28-2.67-7.28-7.07,0-4.22,3.21-7.08,7.51-7.08a10.45,10.45,0,0,1,3.8.62l-.12,1.85a7.81,7.81,0,0,0-3.54-.76,5.06,5.06,0,0,0-5.33,5.37c0,3.06,1.77,5.35,5.05,5.35a7,7,0,0,0,2.17-.29V57.28h-2.87V55.7h4.91Z"/></svg>